<?xml version="1.0" encoding="UTF-8" standalone="no" ?>
<!DOCTYPE svg PUBLIC "-//W3C//DTD SVG 1.1//EN" "http://www.w3.org/Graphics/SVG/1.1/DTD/svg11.dtd">
<svg xmlns="http://www.w3.org/2000/svg" xmlns:xlink="http://www.w3.org/1999/xlink" version="1.1" width="1080" height="1080" viewBox="0 0 1080 1080" xml:space="preserve">
<desc>Created with Fabric.js 5.2.4</desc>
<defs>
</defs>
<g transform="matrix(1 0 0 1 540 540)" id="4def2cf3-d434-488e-8d62-41971013fc1b"  >
<rect style="stroke: none; stroke-width: 1; stroke-dasharray: none; stroke-linecap: butt; stroke-dashoffset: 0; stroke-linejoin: miter; stroke-miterlimit: 4; fill: rgb(255,255,255); fill-rule: nonzero; opacity: 1; visibility: hidden;" vector-effect="non-scaling-stroke"  x="-540" y="-540" rx="0" ry="0" width="1080" height="1080" />
</g>
<g transform="matrix(1 0 0 1 540 540)" id="64d29fbb-bc57-4b03-9d38-1a686e5af9ee"  >
</g>
<g transform="matrix(8.45 0 0 7.7 236.58 228.84)"  >
<path style="stroke: rgb(0,0,0); stroke-width: 4; stroke-dasharray: none; stroke-linecap: butt; stroke-dashoffset: 0; stroke-linejoin: miter; stroke-miterlimit: 4; fill: none; fill-rule: nonzero; opacity: 1;"  transform=" translate(-24, -24)" d="M 36 14 L 12 14 C 10.8954 14 10 14.8954 10 16 L 10 32 C 10 33.1046 10.8954 34 12 34 L 36 34 C 37.1046 34 38 33.1046 38 32 L 38 16 C 38 14.8954 37.1046 14 36 14 Z" stroke-linecap="round" />
</g>
<g transform="matrix(8.45 0 0 7.7 540 229.81)"  >
<path style="stroke: rgb(0,0,0); stroke-width: 4; stroke-dasharray: none; stroke-linecap: butt; stroke-dashoffset: 0; stroke-linejoin: miter; stroke-miterlimit: 4; fill: none; fill-rule: nonzero; opacity: 1;"  transform=" translate(-24, -24)" d="M 36 14 L 12 14 C 10.8954 14 10 14.8954 10 16 L 10 32 C 10 33.1046 10.8954 34 12 34 L 36 34 C 37.1046 34 38 33.1046 38 32 L 38 16 C 38 14.8954 37.1046 14 36 14 Z" stroke-linecap="round" />
</g>
<g transform="matrix(8.45 0 0 7.7 843.42 230.78)"  >
<path style="stroke: rgb(0,0,0); stroke-width: 4; stroke-dasharray: none; stroke-linecap: butt; stroke-dashoffset: 0; stroke-linejoin: miter; stroke-miterlimit: 4; fill: none; fill-rule: nonzero; opacity: 1;"  transform=" translate(-24, -24)" d="M 36 14 L 12 14 C 10.8954 14 10 14.8954 10 16 L 10 32 C 10 33.1046 10.8954 34 12 34 L 36 34 C 37.1046 34 38 33.1046 38 32 L 38 16 C 38 14.8954 37.1046 14 36 14 Z" stroke-linecap="round" />
</g>
<g transform="matrix(8.45 0 0 7.7 236.58 437.46)"  >
<path style="stroke: rgb(0,0,0); stroke-width: 4; stroke-dasharray: none; stroke-linecap: butt; stroke-dashoffset: 0; stroke-linejoin: miter; stroke-miterlimit: 4; fill: none; fill-rule: nonzero; opacity: 1;"  transform=" translate(-24, -24)" d="M 36 14 L 12 14 C 10.8954 14 10 14.8954 10 16 L 10 32 C 10 33.1046 10.8954 34 12 34 L 36 34 C 37.1046 34 38 33.1046 38 32 L 38 16 C 38 14.8954 37.1046 14 36 14 Z" stroke-linecap="round" />
</g>
<g transform="matrix(8.45 0 0 7.7 540 438.43)"  >
<path style="stroke: rgb(0,0,0); stroke-width: 4; stroke-dasharray: none; stroke-linecap: butt; stroke-dashoffset: 0; stroke-linejoin: miter; stroke-miterlimit: 4; fill: none; fill-rule: nonzero; opacity: 1;"  transform=" translate(-24, -24)" d="M 36 14 L 12 14 C 10.8954 14 10 14.8954 10 16 L 10 32 C 10 33.1046 10.8954 34 12 34 L 36 34 C 37.1046 34 38 33.1046 38 32 L 38 16 C 38 14.8954 37.1046 14 36 14 Z" stroke-linecap="round" />
</g>
<g transform="matrix(8.45 0 0 7.7 843.42 439.4)"  >
<path style="stroke: rgb(0,0,0); stroke-width: 4; stroke-dasharray: none; stroke-linecap: butt; stroke-dashoffset: 0; stroke-linejoin: miter; stroke-miterlimit: 4; fill: none; fill-rule: nonzero; opacity: 1;"  transform=" translate(-24, -24)" d="M 36 14 L 12 14 C 10.8954 14 10 14.8954 10 16 L 10 32 C 10 33.1046 10.8954 34 12 34 L 36 34 C 37.1046 34 38 33.1046 38 32 L 38 16 C 38 14.8954 37.1046 14 36 14 Z" stroke-linecap="round" />
</g>
<g transform="matrix(8.45 0 0 7.7 236.58 640.6)"  >
<path style="stroke: rgb(0,0,0); stroke-width: 4; stroke-dasharray: none; stroke-linecap: butt; stroke-dashoffset: 0; stroke-linejoin: miter; stroke-miterlimit: 4; fill: none; fill-rule: nonzero; opacity: 1;"  transform=" translate(-24, -24)" d="M 36 14 L 12 14 C 10.8954 14 10 14.8954 10 16 L 10 32 C 10 33.1046 10.8954 34 12 34 L 36 34 C 37.1046 34 38 33.1046 38 32 L 38 16 C 38 14.8954 37.1046 14 36 14 Z" stroke-linecap="round" />
</g>
<g transform="matrix(8.45 0 0 7.7 540 641.57)"  >
<path style="stroke: rgb(0,0,0); stroke-width: 4; stroke-dasharray: none; stroke-linecap: butt; stroke-dashoffset: 0; stroke-linejoin: miter; stroke-miterlimit: 4; fill: none; fill-rule: nonzero; opacity: 1;"  transform=" translate(-24, -24)" d="M 36 14 L 12 14 C 10.8954 14 10 14.8954 10 16 L 10 32 C 10 33.1046 10.8954 34 12 34 L 36 34 C 37.1046 34 38 33.1046 38 32 L 38 16 C 38 14.8954 37.1046 14 36 14 Z" stroke-linecap="round" />
</g>
<g transform="matrix(8.45 0 0 7.7 843.42 642.54)"  >
<path style="stroke: rgb(0,0,0); stroke-width: 4; stroke-dasharray: none; stroke-linecap: butt; stroke-dashoffset: 0; stroke-linejoin: miter; stroke-miterlimit: 4; fill: none; fill-rule: nonzero; opacity: 1;"  transform=" translate(-24, -24)" d="M 36 14 L 12 14 C 10.8954 14 10 14.8954 10 16 L 10 32 C 10 33.1046 10.8954 34 12 34 L 36 34 C 37.1046 34 38 33.1046 38 32 L 38 16 C 38 14.8954 37.1046 14 36 14 Z" stroke-linecap="round" />
</g>
<g transform="matrix(8.45 0 0 7.7 236.58 849.22)"  >
<path style="stroke: rgb(0,0,0); stroke-width: 4; stroke-dasharray: none; stroke-linecap: butt; stroke-dashoffset: 0; stroke-linejoin: miter; stroke-miterlimit: 4; fill: none; fill-rule: nonzero; opacity: 1;"  transform=" translate(-24, -24)" d="M 36 14 L 12 14 C 10.8954 14 10 14.8954 10 16 L 10 32 C 10 33.1046 10.8954 34 12 34 L 36 34 C 37.1046 34 38 33.1046 38 32 L 38 16 C 38 14.8954 37.1046 14 36 14 Z" stroke-linecap="round" />
</g>
<g transform="matrix(8.45 0 0 7.7 540 850.19)"  >
<path style="stroke: rgb(0,0,0); stroke-width: 4; stroke-dasharray: none; stroke-linecap: butt; stroke-dashoffset: 0; stroke-linejoin: miter; stroke-miterlimit: 4; fill: none; fill-rule: nonzero; opacity: 1;"  transform=" translate(-24, -24)" d="M 36 14 L 12 14 C 10.8954 14 10 14.8954 10 16 L 10 32 C 10 33.1046 10.8954 34 12 34 L 36 34 C 37.1046 34 38 33.1046 38 32 L 38 16 C 38 14.8954 37.1046 14 36 14 Z" stroke-linecap="round" />
</g>
<g transform="matrix(8.45 0 0 7.7 843.42 851.16)"  >
<path style="stroke: rgb(0,0,0); stroke-width: 4; stroke-dasharray: none; stroke-linecap: butt; stroke-dashoffset: 0; stroke-linejoin: miter; stroke-miterlimit: 4; fill: none; fill-rule: nonzero; opacity: 1;"  transform=" translate(-24, -24)" d="M 36 14 L 12 14 C 10.8954 14 10 14.8954 10 16 L 10 32 C 10 33.1046 10.8954 34 12 34 L 36 34 C 37.1046 34 38 33.1046 38 32 L 38 16 C 38 14.8954 37.1046 14 36 14 Z" stroke-linecap="round" />
</g>
<g transform="matrix(NaN NaN NaN NaN 0 0)"  >
<g style=""   >
</g>
</g>
<g transform="matrix(0 45 -45 0 540 540)" id="roll_brush"  >
<line style="stroke: rgb(2,2,2); stroke-width: 1; stroke-dasharray: none; stroke-linecap: butt; stroke-dashoffset: 0; stroke-linejoin: miter; stroke-miterlimit: 10; fill: none; fill-rule: nonzero; opacity: 1;"  x1="10.549999999999999" y1="-10.55" x2="-10.549999999999999" y2="10.55" />
</g>
</svg>