<?xml version="1.0" encoding="UTF-8" standalone="no" ?>
<!DOCTYPE svg PUBLIC "-//W3C//DTD SVG 1.1//EN" "http://www.w3.org/Graphics/SVG/1.1/DTD/svg11.dtd">
<svg xmlns="http://www.w3.org/2000/svg" xmlns:xlink="http://www.w3.org/1999/xlink" version="1.1" width="1080" height="1080" viewBox="0 0 1080 1080" xml:space="preserve">
<desc>Created with Fabric.js 5.2.4</desc>
<defs>
</defs>
<rect x="0" y="0" width="100%" height="100%" fill="transparent"></rect>
<g transform="matrix(1 0 0 1 540 540)" id="4db2f610-5a8b-4414-840d-d2786f9a40a8"  >
</g>
<g transform="matrix(1 0 0 1 540 540)" id="fb8c1529-4296-4b5d-9715-845eb7a58846"  >
<rect style="stroke: none; stroke-width: 1; stroke-dasharray: none; stroke-linecap: butt; stroke-dashoffset: 0; stroke-linejoin: miter; stroke-miterlimit: 4; fill: rgb(255,255,255); fill-rule: nonzero; opacity: 1; visibility: hidden;" vector-effect="non-scaling-stroke"  x="-540" y="-540" rx="0" ry="0" width="1080" height="1080" />
</g>
<g transform="matrix(0 0 0 0 0 0)"  >
<g style=""   >
</g>
</g>
<g transform="matrix(0 0 0 0 0 0)"  >
<g style=""   >
</g>
</g>
<g transform="matrix(15.18 0 0 19.27 505 462.19)"  >
<path style="stroke: rgb(255,255,255); stroke-width: 0.24; stroke-dasharray: none; stroke-linecap: butt; stroke-dashoffset: 0; stroke-linejoin: miter; stroke-miterlimit: 4; fill: rgb(26,26,26); fill-rule: nonzero; opacity: 1;"  transform=" translate(-24, -24)" d="M 38 4 L 10 4 C 8.89543 4 8 4.89543 8 6 L 8 42 C 8 43.1046 8.89543 44 10 44 L 38 44 C 39.1046 44 40 43.1046 40 42 L 40 6 C 40 4.89543 39.1046 4 38 4 Z" stroke-linecap="round" />
</g>
<g transform="matrix(15.18 0 0 19.27 515 472.19)"  >
<path style="stroke: rgb(255,255,255); stroke-width: 0.24; stroke-dasharray: none; stroke-linecap: butt; stroke-dashoffset: 0; stroke-linejoin: miter; stroke-miterlimit: 4; fill: rgb(26,26,26); fill-rule: nonzero; opacity: 1;"  transform=" translate(-24, -24)" d="M 38 4 L 10 4 C 8.89543 4 8 4.89543 8 6 L 8 42 C 8 43.1046 8.89543 44 10 44 L 38 44 C 39.1046 44 40 43.1046 40 42 L 40 6 C 40 4.89543 39.1046 4 38 4 Z" stroke-linecap="round" />
</g>
<g transform="matrix(15.18 0 0 19.27 525 482.19)"  >
<path style="stroke: rgb(255,255,255); stroke-width: 0.24; stroke-dasharray: none; stroke-linecap: butt; stroke-dashoffset: 0; stroke-linejoin: miter; stroke-miterlimit: 4; fill: rgb(26,26,26); fill-rule: nonzero; opacity: 1;"  transform=" translate(-24, -24)" d="M 38 4 L 10 4 C 8.89543 4 8 4.89543 8 6 L 8 42 C 8 43.1046 8.89543 44 10 44 L 38 44 C 39.1046 44 40 43.1046 40 42 L 40 6 C 40 4.89543 39.1046 4 38 4 Z" stroke-linecap="round" />
</g>
<g transform="matrix(15.18 0 0 19.27 535 492.19)"  >
<path style="stroke: rgb(255,255,255); stroke-width: 0.24; stroke-dasharray: none; stroke-linecap: butt; stroke-dashoffset: 0; stroke-linejoin: miter; stroke-miterlimit: 4; fill: rgb(26,26,26); fill-rule: nonzero; opacity: 1;"  transform=" translate(-24, -24)" d="M 38 4 L 10 4 C 8.89543 4 8 4.89543 8 6 L 8 42 C 8 43.1046 8.89543 44 10 44 L 38 44 C 39.1046 44 40 43.1046 40 42 L 40 6 C 40 4.89543 39.1046 4 38 4 Z" stroke-linecap="round" />
</g>
<g transform="matrix(15.18 0 0 19.27 545 502.19)"  >
<path style="stroke: rgb(255,255,255); stroke-width: 0.24; stroke-dasharray: none; stroke-linecap: butt; stroke-dashoffset: 0; stroke-linejoin: miter; stroke-miterlimit: 4; fill: rgb(26,26,26); fill-rule: nonzero; opacity: 1;"  transform=" translate(-24, -24)" d="M 38 4 L 10 4 C 8.89543 4 8 4.89543 8 6 L 8 42 C 8 43.1046 8.89543 44 10 44 L 38 44 C 39.1046 44 40 43.1046 40 42 L 40 6 C 40 4.89543 39.1046 4 38 4 Z" stroke-linecap="round" />
</g>
<g transform="matrix(15.18 0 0 19.27 555 512.19)"  >
<path style="stroke: rgb(255,255,255); stroke-width: 0.24; stroke-dasharray: none; stroke-linecap: butt; stroke-dashoffset: 0; stroke-linejoin: miter; stroke-miterlimit: 4; fill: rgb(26,26,26); fill-rule: nonzero; opacity: 1;"  transform=" translate(-24, -24)" d="M 38 4 L 10 4 C 8.89543 4 8 4.89543 8 6 L 8 42 C 8 43.1046 8.89543 44 10 44 L 38 44 C 39.1046 44 40 43.1046 40 42 L 40 6 C 40 4.89543 39.1046 4 38 4 Z" stroke-linecap="round" />
</g>
<g transform="matrix(15.18 0 0 19.27 565 522.19)"  >
<path style="stroke: rgb(255,255,255); stroke-width: 0.24; stroke-dasharray: none; stroke-linecap: butt; stroke-dashoffset: 0; stroke-linejoin: miter; stroke-miterlimit: 4; fill: rgb(26,26,26); fill-rule: nonzero; opacity: 1;"  transform=" translate(-24, -24)" d="M 38 4 L 10 4 C 8.89543 4 8 4.89543 8 6 L 8 42 C 8 43.1046 8.89543 44 10 44 L 38 44 C 39.1046 44 40 43.1046 40 42 L 40 6 C 40 4.89543 39.1046 4 38 4 Z" stroke-linecap="round" />
</g>
<g transform="matrix(15.18 0 0 19.27 575 532.19)"  >
<path style="stroke: rgb(255,255,255); stroke-width: 0.24; stroke-dasharray: none; stroke-linecap: butt; stroke-dashoffset: 0; stroke-linejoin: miter; stroke-miterlimit: 4; fill: rgb(26,26,26); fill-rule: nonzero; opacity: 1;"  transform=" translate(-24, -24)" d="M 38 4 L 10 4 C 8.89543 4 8 4.89543 8 6 L 8 42 C 8 43.1046 8.89543 44 10 44 L 38 44 C 39.1046 44 40 43.1046 40 42 L 40 6 C 40 4.89543 39.1046 4 38 4 Z" stroke-linecap="round" />
</g>
</svg>