<?xml version="1.0" encoding="UTF-8" standalone="no" ?>
<!DOCTYPE svg PUBLIC "-//W3C//DTD SVG 1.1//EN" "http://www.w3.org/Graphics/SVG/1.1/DTD/svg11.dtd">
<svg xmlns="http://www.w3.org/2000/svg" xmlns:xlink="http://www.w3.org/1999/xlink" version="1.1" width="1080" height="1080" viewBox="0 0 1080 1080" xml:space="preserve">
<desc>Created with Fabric.js 5.2.4</desc>
<defs>
</defs>
<g transform="matrix(1 0 0 1 540 540)" id="4db2f610-5a8b-4414-840d-d2786f9a40a8"  >
</g>
<g transform="matrix(1 0 0 1 540 540)" id="fb8c1529-4296-4b5d-9715-845eb7a58846"  >
<rect style="stroke: none; stroke-width: 1; stroke-dasharray: none; stroke-linecap: butt; stroke-dashoffset: 0; stroke-linejoin: miter; stroke-miterlimit: 4; fill: rgb(255,255,255); fill-rule: nonzero; opacity: 1; visibility: hidden;" vector-effect="non-scaling-stroke"  x="-540" y="-540" rx="0" ry="0" width="1080" height="1080" />
</g>
<g transform="matrix(14.98 0 0 19.63 452.46 452.47)"  >
<path style="stroke: rgb(0,0,0); stroke-width: 1.15; stroke-dasharray: none; stroke-linecap: butt; stroke-dashoffset: 0; stroke-linejoin: miter; stroke-miterlimit: 4; fill: rgb(255,250,250); fill-rule: nonzero; opacity: 1;"  transform=" translate(-24, -24)" d="M 38 4 L 10 4 C 8.89543 4 8 4.89543 8 6 L 8 42 C 8 43.1046 8.89543 44 10 44 L 38 44 C 39.1046 44 40 43.1046 40 42 L 40 6 C 40 4.89543 39.1046 4 38 4 Z" stroke-linecap="round" />
</g>
<g transform="matrix(14.98 0 0 19.63 477.47 477.48)"  >
<path style="stroke: rgb(0,0,0); stroke-width: 1.15; stroke-dasharray: none; stroke-linecap: butt; stroke-dashoffset: 0; stroke-linejoin: miter; stroke-miterlimit: 4; fill: rgb(255,250,250); fill-rule: nonzero; opacity: 1;"  transform=" translate(-24, -24)" d="M 38 4 L 10 4 C 8.89543 4 8 4.89543 8 6 L 8 42 C 8 43.1046 8.89543 44 10 44 L 38 44 C 39.1046 44 40 43.1046 40 42 L 40 6 C 40 4.89543 39.1046 4 38 4 Z" stroke-linecap="round" />
</g>
<g transform="matrix(14.98 0 0 19.63 502.49 502.49)"  >
<path style="stroke: rgb(0,0,0); stroke-width: 1.15; stroke-dasharray: none; stroke-linecap: butt; stroke-dashoffset: 0; stroke-linejoin: miter; stroke-miterlimit: 4; fill: rgb(255,250,250); fill-rule: nonzero; opacity: 1;"  transform=" translate(-24, -24)" d="M 38 4 L 10 4 C 8.89543 4 8 4.89543 8 6 L 8 42 C 8 43.1046 8.89543 44 10 44 L 38 44 C 39.1046 44 40 43.1046 40 42 L 40 6 C 40 4.89543 39.1046 4 38 4 Z" stroke-linecap="round" />
</g>
<g transform="matrix(14.98 0 0 19.63 527.5 527.5)"  >
<path style="stroke: rgb(0,0,0); stroke-width: 1.15; stroke-dasharray: none; stroke-linecap: butt; stroke-dashoffset: 0; stroke-linejoin: miter; stroke-miterlimit: 4; fill: rgb(255,250,250); fill-rule: nonzero; opacity: 1;"  transform=" translate(-24, -24)" d="M 38 4 L 10 4 C 8.89543 4 8 4.89543 8 6 L 8 42 C 8 43.1046 8.89543 44 10 44 L 38 44 C 39.1046 44 40 43.1046 40 42 L 40 6 C 40 4.89543 39.1046 4 38 4 Z" stroke-linecap="round" />
</g>
<g transform="matrix(14.98 0 0 19.63 552.51 552.5)"  >
<path style="stroke: rgb(0,0,0); stroke-width: 1.15; stroke-dasharray: none; stroke-linecap: butt; stroke-dashoffset: 0; stroke-linejoin: miter; stroke-miterlimit: 4; fill: rgb(255,250,250); fill-rule: nonzero; opacity: 1;"  transform=" translate(-24, -24)" d="M 38 4 L 10 4 C 8.89543 4 8 4.89543 8 6 L 8 42 C 8 43.1046 8.89543 44 10 44 L 38 44 C 39.1046 44 40 43.1046 40 42 L 40 6 C 40 4.89543 39.1046 4 38 4 Z" stroke-linecap="round" />
</g>
<g transform="matrix(14.98 0 0 19.63 577.52 577.51)"  >
<path style="stroke: rgb(0,0,0); stroke-width: 1.15; stroke-dasharray: none; stroke-linecap: butt; stroke-dashoffset: 0; stroke-linejoin: miter; stroke-miterlimit: 4; fill: rgb(255,250,250); fill-rule: nonzero; opacity: 1;"  transform=" translate(-24, -24)" d="M 38 4 L 10 4 C 8.89543 4 8 4.89543 8 6 L 8 42 C 8 43.1046 8.89543 44 10 44 L 38 44 C 39.1046 44 40 43.1046 40 42 L 40 6 C 40 4.89543 39.1046 4 38 4 Z" stroke-linecap="round" />
</g>
<g transform="matrix(14.98 0 0 19.63 602.53 602.52)"  >
<path style="stroke: rgb(0,0,0); stroke-width: 1.15; stroke-dasharray: none; stroke-linecap: butt; stroke-dashoffset: 0; stroke-linejoin: miter; stroke-miterlimit: 4; fill: rgb(255,250,250); fill-rule: nonzero; opacity: 1;"  transform=" translate(-24, -24)" d="M 38 4 L 10 4 C 8.89543 4 8 4.89543 8 6 L 8 42 C 8 43.1046 8.89543 44 10 44 L 38 44 C 39.1046 44 40 43.1046 40 42 L 40 6 C 40 4.89543 39.1046 4 38 4 Z" stroke-linecap="round" />
</g>
<g transform="matrix(14.98 0 0 19.63 627.54 627.53)"  >
<path style="stroke: rgb(0,0,0); stroke-width: 1.15; stroke-dasharray: none; stroke-linecap: butt; stroke-dashoffset: 0; stroke-linejoin: miter; stroke-miterlimit: 4; fill: rgb(255,250,250); fill-rule: nonzero; opacity: 1;"  transform=" translate(-24, -24)" d="M 38 4 L 10 4 C 8.89543 4 8 4.89543 8 6 L 8 42 C 8 43.1046 8.89543 44 10 44 L 38 44 C 39.1046 44 40 43.1046 40 42 L 40 6 C 40 4.89543 39.1046 4 38 4 Z" stroke-linecap="round" />
</g>
</svg>